<svg width="663" height="530" viewBox="0 0 663 530" fill="none" xmlns="http://www.w3.org/2000/svg">
<path d="M284.8 310.2H232.4L224 335H188.2L239 194.6H278.6L329.4 335H293.2L284.8 310.2ZM276 283.8L258.6 232.4L241.4 283.8H276ZM397.461 194.6C412.261 194.6 425.194 197.533 436.261 203.4C447.328 209.267 455.861 217.533 461.861 228.2C467.994 238.733 471.061 250.933 471.061 264.8C471.061 278.533 467.994 290.733 461.861 301.4C455.861 312.067 447.261 320.333 436.061 326.2C424.994 332.067 412.128 335 397.461 335H344.861V194.6H397.461ZM395.261 305.4C408.194 305.4 418.261 301.867 425.461 294.8C432.661 287.733 436.261 277.733 436.261 264.8C436.261 251.867 432.661 241.8 425.461 234.6C418.261 227.4 408.194 223.8 395.261 223.8H379.061V305.4H395.261Z" fill="#B0B0B9"/>
<rect x="7.5" y="7.5" width="648" height="515" rx="41.5" stroke="#B0B0B9" stroke-width="15"/>
</svg>
