<svg width="555" height="500" viewBox="0 0 555 500" fill="none" xmlns="http://www.w3.org/2000/svg">
<g clip-path="url(#clip0_295:2)">
<path d="M280.796 500C432.235 500 555 489.275 555 476.046C555 462.816 432.235 452.092 280.796 452.092C129.357 452.092 6.59143 462.816 6.59143 476.046C6.59143 489.275 129.357 500 280.796 500Z" fill="#3F3D56"/>
<path d="M428.907 142.252C428.907 142.252 430.62 168.116 430.62 169.074C430.62 170.032 418.627 236.129 418.627 236.129C418.627 236.129 401.493 272.53 418.627 271.572C435.76 270.614 430.62 237.086 430.62 237.086L448.61 181.527L440.9 142.252L428.907 142.252Z" fill="#A0616A"/>
<path d="M436.77 208.462H96.3467V475.864H436.77V208.462Z" fill="#F2F2F2"/>
<path d="M210.48 310.489H125.004V477.339H210.48V310.489Z" fill="#3F3D56"/>
<path d="M163.839 320.498H140.814V344.499H163.839V320.498Z" fill="#F2F2F2"/>
<path d="M194.669 320.498H171.644V344.499H194.669V320.498Z" fill="#F2F2F2"/>
<path d="M163.839 353.227H140.814V378.1H163.839V353.227Z" fill="#F2F2F2"/>
<path d="M194.669 353.227H171.644V378.1H194.669V353.227Z" fill="#F2F2F2"/>
<path d="M199.61 411.224C202.612 411.224 205.045 408.503 205.045 405.146C205.045 401.79 202.612 399.069 199.61 399.069C196.609 399.069 194.175 401.79 194.175 405.146C194.175 408.503 196.609 411.224 199.61 411.224Z" fill="#0066F5"/>
<path d="M408.114 294.65H239.137V453.212H408.114V294.65Z" fill="#3F3D56"/>
<path d="M472.344 258.805H60.7725L88.214 194.65L94.3552 180.286L102.39 161.501L108.531 147.137L115.65 130.496H439.918L444.123 147.137L447.754 161.501L452.502 180.286L456.133 194.65L472.344 258.805Z" fill="#3F3D56"/>
<path d="M250.995 360.395H245.066V401.279H250.995V360.395Z" fill="#0066F5"/>
<path d="M250.995 366.473H245.066V371.445H250.995V366.473Z" fill="#F2F2F2"/>
<path d="M250.995 390.229H245.066V395.202H250.995V390.229Z" fill="#F2F2F2"/>
<path d="M268.288 360.395H253.959V401.279H268.288V360.395Z" fill="#0066F5"/>
<path d="M268.288 366.473H253.959V371.445H268.288V366.473Z" fill="#F2F2F2"/>
<path d="M268.288 390.229H253.959V395.202H268.288V390.229Z" fill="#F2F2F2"/>
<path d="M277.675 360.395H271.746V401.279H277.675V360.395Z" fill="#0066F5"/>
<path d="M277.675 366.473H271.746V371.445H277.675V366.473Z" fill="#F2F2F2"/>
<path d="M277.675 390.229H271.746V395.202H277.675V390.229Z" fill="#F2F2F2"/>
<path d="M286.569 360.395H280.64V401.279H286.569V360.395Z" fill="#0066F5"/>
<path d="M286.569 366.473H280.64V371.445H286.569V366.473Z" fill="#F2F2F2"/>
<path d="M286.569 390.229H280.64V395.202H286.569V390.229Z" fill="#F2F2F2"/>
<path d="M292.282 360.54L286.734 362.879L299.631 401.135L305.179 398.796L292.282 360.54Z" fill="#0066F5"/>
<path d="M294.199 366.227L288.651 368.565L290.22 373.218L295.768 370.88L294.199 366.227Z" fill="#F2F2F2"/>
<path d="M301.693 388.457L296.145 390.795L297.714 395.448L303.262 393.109L301.693 388.457Z" fill="#F2F2F2"/>
<path d="M402.679 360.395H388.35V401.279H402.679V360.395Z" fill="#0066F5"/>
<path d="M402.679 366.473H388.35V371.445H402.679V366.473Z" fill="#F2F2F2"/>
<path d="M402.679 390.229H388.35V395.202H402.679V390.229Z" fill="#F2F2F2"/>
<path d="M384.892 360.395H378.963V401.279H384.892V360.395Z" fill="#0066F5"/>
<path d="M384.892 366.473H378.963V371.445H384.892V366.473Z" fill="#F2F2F2"/>
<path d="M384.892 390.229H378.963V395.202H384.892V390.229Z" fill="#F2F2F2"/>
<path d="M375.998 360.395H370.069V401.279H375.998V360.395Z" fill="#0066F5"/>
<path d="M375.998 366.473H370.069V371.445H375.998V366.473Z" fill="#F2F2F2"/>
<path d="M375.998 390.229H370.069V395.202H375.998V390.229Z" fill="#F2F2F2"/>
<path d="M364.356 360.54L351.459 398.796L357.007 401.135L369.904 362.878L364.356 360.54Z" fill="#0066F5"/>
<path d="M362.439 366.227L360.87 370.879L366.418 373.218L367.987 368.565L362.439 366.227Z" fill="#F2F2F2"/>
<path d="M354.945 388.457L353.376 393.109L358.924 395.448L360.493 390.795L354.945 388.457Z" fill="#F2F2F2"/>
<path d="M408.114 401.279H239.137V405.146H408.114V401.279Z" fill="#F2F2F2"/>
<path d="M343.883 360.395H312.755V401.279H343.883V360.395Z" fill="#0066F5"/>
<path d="M336.224 369.235H320.414V376.97H336.224V369.235Z" fill="#F2F2F2"/>
<path d="M325.107 294.65H322.143V330.009H325.107V294.65Z" fill="#F2F2F2"/>
<path d="M323.625 335.534C326.354 335.534 328.566 333.06 328.566 330.009C328.566 326.957 326.354 324.484 323.625 324.484C320.897 324.484 318.684 326.957 318.684 330.009C318.684 333.06 320.897 335.534 323.625 335.534Z" fill="#F2F2F2"/>
<path d="M447.754 161.501H102.39L108.531 147.137H444.123L447.754 161.501Z" fill="#0066F5"/>
<path d="M456.134 194.65H88.214L94.3552 180.286H452.502L456.134 194.65Z" fill="#0066F5"/>
</g>
<defs>
<clipPath id="clip0_295:2">
<rect width="555" height="500" fill="white"/>
</clipPath>
</defs>
</svg>
