<svg width="557" height="336" viewBox="0 0 557 336" fill="none" xmlns="http://www.w3.org/2000/svg">
<g clip-path="url(#clip0_298:4)">
<path d="M557 242.077H417.024V243.289H557V242.077Z" fill="#3F3D56"/>
<path d="M448.239 231.189L452.305 253.609L461.017 256.033L458.694 229.371L448.239 231.189Z" fill="#A0616A"/>
<path d="M497.027 231.189L501.093 253.609L509.805 256.033L507.482 229.371L497.027 231.189Z" fill="#A0616A"/>
<path d="M457.532 249.368C457.532 249.368 448.239 248.762 448.239 251.792C448.239 254.822 443.593 265.123 443.593 265.123C443.593 265.123 440.108 277.242 449.401 276.03C458.694 274.818 464.502 263.911 464.502 263.911L462.179 252.398L457.532 249.368Z" fill="#2F2E41"/>
<path d="M504.078 250.485C504.078 250.485 497.879 246.328 498.322 249.099C498.765 251.871 499.208 259.262 502.307 259.724C505.406 260.186 514.705 262.957 515.147 263.881C515.59 264.805 526.217 268.501 526.217 262.495C526.217 256.49 519.575 251.871 519.575 251.871L512.048 245.866C512.048 245.866 507.178 245.404 506.292 248.637C505.406 251.871 504.078 250.485 504.078 250.485Z" fill="#2F2E41"/>
<path d="M445.193 103.618C445.193 103.618 435.32 88.4688 431.835 93.3165C428.35 98.1641 440.547 107.253 440.547 107.253L445.193 103.618Z" fill="#A0616A"/>
<path d="M448.678 118.161C448.097 117.555 437.643 107.253 437.643 107.253L445.193 101.8L453.906 110.889L448.678 118.161Z" fill="#575A89"/>
<path d="M450.13 71.1992C450.13 71.1992 442.579 71.8052 443.16 78.4706C443.741 85.1361 448.678 107.253 448.678 107.253L451.582 113.313C451.582 113.313 462.327 78.4706 450.13 71.1992Z" fill="#575A89"/>
<path d="M450.711 49.9909L452.802 57.2623H478.996L479.751 49.385L482.017 57.2623H485.385L486.14 49.385L488.406 57.2623H491.949L488.617 48.89C487.07 44.8876 485.894 40.7396 485.105 36.5029C484.066 31.2421 481.319 26.5162 477.329 23.1227C473.338 19.7292 468.347 17.8759 463.198 17.8755V17.8755C462.889 17.8755 462.582 17.882 462.277 17.8949C447.595 18.516 438.192 34.5564 443.825 48.7151L447.226 57.2623H450.014L450.711 49.9909Z" fill="#2F2E41"/>
<path d="M450.421 113.313C450.421 113.313 432.416 129.067 437.643 150.276C442.87 171.484 444.613 238.139 444.613 238.139L462.618 236.321V152.7L487.593 202.388L491.659 238.139L511.987 234.503L502.694 190.875L484.823 135.262L482.947 119.217L450.421 113.313Z" fill="#2F2E41"/>
<path d="M462.908 50.5969C469.645 50.5969 475.105 44.8998 475.105 37.8719C475.105 30.8441 469.645 25.147 462.908 25.147C456.172 25.147 450.711 30.8441 450.711 37.8719C450.711 44.8998 456.172 50.5969 462.908 50.5969Z" fill="#A0616A"/>
<path d="M455.648 46.6582C455.648 46.6582 460.876 66.6546 457.971 69.0784C455.067 71.5022 478.3 61.201 478.3 61.201C478.3 61.201 468.426 49.6879 469.588 44.8403L455.648 46.6582Z" fill="#A0616A"/>
<path d="M477.138 56.9595C477.138 56.9595 467.839 65.3047 458.84 65.9797C458.84 65.9797 446.936 72.7142 447.517 73.3202C448.098 73.9261 449.84 82.4094 449.84 82.4094C449.84 82.4094 452.744 87.0881 452.744 96.9523C452.744 98.1642 448.679 115.131 448.679 115.131L482.947 119.978C482.947 119.978 492.24 88.469 492.82 77.5618C493.401 66.6547 496.886 55.1416 491.659 54.5357C486.431 53.9297 477.138 56.9595 477.138 56.9595Z" fill="#0066F5"/>
<path d="M490.497 56.9595C490.497 56.9595 494.563 53.3238 496.886 61.8071C499.209 70.2905 508.502 96.9523 506.179 102.406C503.856 107.859 489.916 132.097 489.916 132.097L482.946 127.25L496.886 99.9821L488.754 80.5916L490.497 56.9595Z" fill="#0066F5"/>
<path d="M485.85 126.644C485.85 126.644 467.845 138.157 473.653 140.581C479.461 143.004 489.335 130.28 489.335 130.28L485.85 126.644Z" fill="#A0616A"/>
<path d="M449.55 23.3291V36.0541H454.196L455.938 30.6005L456.374 36.0541H469.297L471.04 30.6005L471.475 36.0541H476.848V23.3291H449.55Z" fill="#2F2E41"/>
<path opacity="0.2" d="M449.55 83.3184C449.55 83.3184 448.388 95.4374 450.131 97.8612C451.873 100.285 449.55 83.3184 449.55 83.3184Z" fill="black"/>
<path d="M349.069 294.795H102.804V296.007H349.069V294.795Z" fill="#3F3D56"/>
<path d="M334.09 202.757L262.638 277.302C251.715 288.697 236.9 295.098 221.452 295.098C206.005 295.098 191.19 288.697 180.267 277.302C179.303 276.296 178.374 275.26 177.491 274.193C176.036 272.46 174.68 270.639 173.431 268.74C168.848 261.823 165.713 253.978 164.231 245.713C163.9 243.914 163.65 242.096 163.482 240.26C163.301 238.303 163.21 236.327 163.209 234.334C163.204 228.758 163.93 223.209 165.369 217.84C165.863 215.991 166.442 214.174 167.106 212.386C170.039 204.498 174.522 197.338 180.267 191.366L211.439 158.844C213.073 157.14 215.289 156.182 217.599 156.182C219.909 156.182 222.125 157.14 223.758 158.844C225.392 160.548 226.31 162.86 226.31 165.27C226.31 167.681 225.392 169.992 223.758 171.696L192.586 204.218C190.231 206.672 188.169 209.414 186.447 212.386C182.622 219.01 180.611 226.601 180.633 234.334C180.634 236.316 180.764 238.296 181.022 240.26C181.265 242.101 181.626 243.923 182.102 245.713C184.005 252.892 187.68 259.424 192.759 264.657C197.838 269.891 204.145 273.643 211.048 275.539C217.952 277.435 225.212 277.409 232.103 275.463C238.993 273.517 245.275 269.72 250.319 264.449L268.278 245.713L300.222 212.386L321.771 189.905C328.546 182.817 332.716 173.469 333.552 163.497C334.387 153.525 331.835 143.564 326.342 135.357C325.048 133.379 324.555 130.948 324.969 128.593C325.384 126.238 326.672 124.148 328.555 122.778C330.437 121.407 332.762 120.867 335.024 121.275C337.286 121.682 339.302 123.004 340.635 124.953C348.463 136.664 352.096 150.873 350.9 165.095C349.703 179.317 343.753 192.648 334.09 202.757V202.757Z" fill="#3F3D56"/>
<path d="M446.065 60.7656C446.065 61.214 446.059 61.6624 446.047 62.1108C445.897 70.0429 444.254 77.8669 441.209 85.137C440.429 87.0008 439.557 88.8212 438.595 90.5905C435.985 95.4053 432.759 99.827 429.006 103.734L397.834 136.255C396.199 137.955 393.985 138.909 391.677 138.908C389.369 138.906 387.156 137.949 385.524 136.246C383.891 134.543 382.974 132.234 382.972 129.826C382.971 127.418 383.885 125.108 385.515 123.403L416.687 90.8814C416.78 90.7844 416.873 90.6875 416.96 90.5905C424.153 82.9735 428.318 72.7991 428.617 62.1108C428.634 61.6624 428.64 61.214 428.64 60.7656C428.64 59.384 428.578 58.0146 428.454 56.6572C427.545 46.8258 423.384 37.631 416.687 30.6498C416.066 30.0014 415.432 29.3773 414.776 28.7835C407.325 21.9489 397.742 18.1793 387.821 18.1793C377.899 18.1793 368.317 21.9489 360.865 28.7835C360.209 29.3773 359.576 30.0014 358.954 30.6498L287.503 105.194C279.859 113.188 275.567 124.018 275.567 135.31C275.567 146.601 279.859 157.431 287.503 165.426C289.136 167.13 290.054 169.441 290.054 171.852C290.054 174.262 289.136 176.573 287.503 178.278C285.869 179.982 283.653 180.94 281.343 180.94C279.033 180.94 276.817 179.982 275.183 178.278C264.276 166.873 258.151 151.42 258.151 135.31C258.151 119.199 264.276 103.746 275.183 92.3418L346.635 17.7976C352.851 11.3258 360.389 6.40255 368.684 3.39549C376.98 0.388427 385.819 -0.624785 394.543 0.431491C403.266 1.48777 411.648 4.58624 419.063 9.49559C426.478 14.4049 432.734 20.9983 437.364 28.7835C438.419 30.5464 439.382 32.3668 440.251 34.237C443.518 41.2562 445.447 48.8706 445.931 56.6572C446.018 58.0206 446.063 59.3901 446.065 60.7656Z" fill="#3F3D56"/>
<path d="M72.7848 319.134C70.1241 329.395 61.0104 335.75 61.0104 335.75C61.0104 335.75 56.2106 325.468 58.8714 315.207C61.5321 304.946 70.6458 298.59 70.6458 298.59C70.6458 298.59 75.4456 308.872 72.7848 319.134Z" fill="#0066F5"/>
<path d="M48.5796 319.134C51.2404 329.395 60.3541 335.75 60.3541 335.75C60.3541 335.75 65.1538 325.468 62.4931 315.207C59.8323 304.946 50.7186 298.59 50.7186 298.59C50.7186 298.59 45.9189 308.872 48.5796 319.134Z" fill="#0066F5"/>
<path d="M52.4893 316.929C59.7905 324.344 60.6823 335.742 60.6823 335.742C60.6823 335.742 49.7365 335.119 42.4354 327.704C35.1342 320.289 34.2424 308.89 34.2424 308.89C34.2424 308.89 45.1881 309.514 52.4893 316.929Z" fill="#3F3D56"/>
<path d="M68.8748 316.929C61.5737 324.344 60.6819 335.742 60.6819 335.742C60.6819 335.742 71.6276 335.119 78.9288 327.704C86.2299 320.289 87.1217 308.89 87.1217 308.89C87.1217 308.89 76.176 309.514 68.8748 316.929Z" fill="#3F3D56"/>
<path d="M396.695 59.6862C396.695 60.5002 396.617 61.3121 396.463 62.11C395.927 64.8471 394.501 67.307 392.427 69.0737C390.352 70.8403 387.757 71.8052 385.079 71.8052C382.401 71.8052 379.806 70.8403 377.731 69.0737C375.657 67.307 374.231 64.8471 373.695 62.11C373.345 60.3049 373.391 58.4406 373.829 56.6565C374.533 53.7976 376.214 51.3054 378.555 49.6474C380.895 47.9895 383.736 47.2799 386.543 47.6518C389.349 48.0237 391.93 49.4515 393.799 51.6673C395.668 53.883 396.698 56.7344 396.695 59.6862Z" fill="#0066F5"/>
<path d="M225.356 243.29C225.355 244.104 225.278 244.915 225.123 245.713C224.587 248.45 223.161 250.91 221.087 252.677C219.013 254.444 216.417 255.409 213.739 255.409C211.062 255.409 208.466 254.444 206.392 252.677C204.317 250.91 202.891 248.45 202.355 245.713C202.006 243.908 202.051 242.044 202.489 240.26C203.194 237.401 204.874 234.909 207.215 233.251C209.556 231.593 212.396 230.883 215.203 231.255C218.01 231.627 220.59 233.055 222.459 235.271C224.328 237.486 225.358 240.338 225.356 243.29Z" fill="#0066F5"/>
<path d="M134.168 334.788H0V336H134.168V334.788Z" fill="#3F3D56"/>
<path d="M186.447 212.386C185.437 214.135 184.55 215.957 183.793 217.84H165.369C165.863 215.991 166.442 214.174 167.106 212.386H186.447Z" fill="#0066F5"/>
<path d="M324.861 212.386L319.633 217.84H294.995L300.222 212.386H324.861Z" fill="#0066F5"/>
<path d="M182.102 245.713H164.231C163.9 243.913 163.65 242.096 163.481 240.26H181.022C181.265 242.101 181.625 243.923 182.102 245.713V245.713Z" fill="#0066F5"/>
<path d="M298.143 240.26L292.916 245.713H268.278L273.505 240.26H298.143Z" fill="#0066F5"/>
<path d="M207.025 274.193H177.491C176.036 272.46 174.68 270.639 173.431 268.74H197.383C200.345 271.006 203.588 272.841 207.025 274.193Z" fill="#0066F5"/>
<path d="M270.845 268.74L265.618 274.193H235.88C239.316 272.841 242.56 271.006 245.521 268.74H270.845Z" fill="#0066F5"/>
<path d="M183.301 102.851C178.861 95.0228 170.076 94.6579 170.076 94.6579C170.076 94.6579 161.515 93.5158 156.023 105.438C150.904 116.55 143.84 127.279 154.886 129.881L156.881 123.402L158.117 130.363C159.689 130.481 161.267 130.509 162.843 130.447C174.672 130.049 185.937 130.564 185.575 126.135C185.092 120.248 187.574 110.383 183.301 102.851Z" fill="#2F2E41"/>
<path d="M151.302 275.708L151.883 291.463H162.337L161.757 274.496L151.302 275.708Z" fill="#FBBEBE"/>
<path d="M179.762 164.213L178.705 167.879L165.009 215.343L163.499 220.566L164.661 276.314L150.14 278.132C150.14 278.132 149.716 272.278 149.095 263.637C147.846 246.525 145.802 218.464 144.617 203.194C144.181 197.546 143.868 193.65 143.751 192.693C143.171 187.845 150.721 163.607 150.721 163.607L165.822 162.395L179.762 164.213Z" fill="#2F2E41"/>
<path d="M154.787 289.645C154.787 289.645 150.721 284.797 150.14 288.433C149.559 292.068 142.59 306.005 142.59 306.005C142.59 306.005 122.261 319.942 139.686 321.154C139.686 321.154 148.398 319.942 151.302 315.095C151.302 315.095 155.948 312.065 157.11 312.065C158.272 312.065 165.241 309.641 164.08 306.005C162.918 302.37 163.499 289.039 163.499 289.039L154.787 289.645Z" fill="#2F2E41"/>
<path d="M154.206 261.165L159.433 271.466L167.565 267.225L162.337 255.105L154.206 261.165Z" fill="#FBBEBE"/>
<path opacity="0.2" d="M150.14 231.473C150.14 231.473 145.807 221.596 144.623 206.326C153.033 196.522 163.209 185.724 163.209 185.724L175.406 185.118L179.181 184.815C180.064 194.026 172.595 205.89 165.009 215.343C160.4 221.056 155.432 226.445 150.14 231.473V231.473Z" fill="black"/>
<path d="M165.242 185.421C165.242 185.421 128.069 219.354 133.297 233.291C138.524 247.228 153.044 264.195 153.044 264.195L164.263 257.209L153.625 231.473C153.625 231.473 158.085 227.348 163.513 221.234C172.346 211.286 183.745 196.075 182.666 184.815L182.085 164.213L172.211 165.425L165.242 185.421Z" fill="#0066F5"/>
<path d="M161.756 269.042C161.756 269.042 157.691 269.042 158.271 272.678C158.852 276.314 160.014 282.373 160.014 282.373C160.014 282.373 155.367 310.853 166.403 304.188C177.438 297.522 174.534 279.95 174.534 279.95C174.534 279.95 178.6 269.042 173.373 267.831C168.145 266.619 166.403 265.407 165.822 266.013C165.241 266.619 161.756 269.042 161.756 269.042Z" fill="#2F2E41"/>
<path d="M169.888 120.584C175.662 120.584 180.343 115.701 180.343 109.677C180.343 103.653 175.662 98.77 169.888 98.77C164.114 98.77 159.433 103.653 159.433 109.677C159.433 115.701 164.114 120.584 169.888 120.584Z" fill="#FBBEBE"/>
<path d="M165.822 113.919C165.822 113.919 170.469 126.644 168.726 127.25C166.984 127.856 163.499 130.886 163.499 130.886L169.307 136.339L184.408 127.856C184.408 127.856 177.439 118.161 178.019 113.919H165.822Z" fill="#FBBEBE"/>
<path d="M184.408 125.432C184.408 125.432 172.255 131.682 167.877 127.648C167.877 127.648 160.595 127.25 159.433 131.491C158.272 135.733 160.595 139.369 157.691 140.581C154.787 141.793 152.754 145.125 154.496 150.579C156.239 156.032 155.948 156.941 153.625 158.759C151.302 160.577 148.979 164.213 148.979 165.425C148.979 166.637 146.655 166.637 147.817 167.848C148.979 169.06 146.655 167.848 148.979 169.06C151.302 170.272 157.691 159.365 162.337 164.819C166.984 170.272 181.504 179.362 182.666 173.908C183.827 168.454 187.312 155.123 187.312 155.123C187.312 155.123 199.509 131.491 196.024 129.068C192.54 126.644 184.408 125.432 184.408 125.432Z" fill="#CFCCE0"/>
<path d="M182.665 167.848C182.665 167.848 176.277 166.637 174.534 170.878C172.792 175.12 162.918 184.815 169.307 185.421C175.696 186.027 180.342 175.12 180.342 175.12L186.731 173.908L182.665 167.848Z" fill="#FBBEBE"/>
<path d="M189.055 129.068L196.651 129.509C196.651 129.509 200.09 133.309 200.671 136.945C201.252 140.581 212.287 167.848 205.317 170.878C198.348 173.908 183.247 175.726 183.247 175.726L181.504 167.243L191.378 163.607L184.408 148.458L189.055 129.068Z" fill="#CFCCE0"/>
<path opacity="0.2" d="M154.496 231.777L164.05 256.695L152.754 231.777L162.628 220.869L154.496 231.777Z" fill="black"/>
<path opacity="0.2" d="M148.771 259.205L152.754 264.497H149.85L148.771 259.205Z" fill="black"/>
<path d="M171.151 101.325C174.659 101.325 177.503 98.3581 177.503 94.698C177.503 91.0379 174.659 88.0708 171.151 88.0708C167.642 88.0708 164.798 91.0379 164.798 94.698C164.798 98.3581 167.642 101.325 171.151 101.325Z" fill="#2F2E41"/>
<path d="M176.343 114.627C176.344 112.99 176.924 111.412 177.974 110.195C179.023 108.978 180.467 108.21 182.027 108.037C181.805 108.013 181.582 108 181.358 108C180.524 107.999 179.697 108.17 178.926 108.503C178.154 108.835 177.453 109.323 176.863 109.939C176.272 110.554 175.804 111.285 175.484 112.09C175.164 112.894 175 113.756 175 114.627C175 115.498 175.164 116.36 175.484 117.165C175.804 117.969 176.272 118.7 176.863 119.316C177.453 119.931 178.154 120.419 178.926 120.752C179.697 121.084 180.524 121.255 181.358 121.254C181.582 121.254 181.805 121.242 182.027 121.217C180.467 121.045 179.023 120.276 177.974 119.059C176.924 117.843 176.344 116.264 176.343 114.627Z" fill="#2F2E41"/>
<path d="M181.338 102.096L172.658 97.3533L160.673 99.2935L158.193 110.72L164.366 110.472L166.091 106.274V110.403L168.939 110.289L170.592 103.605L171.625 110.72L181.751 110.504L181.338 102.096Z" fill="#2F2E41"/>
<path d="M105.6 100H98.76L87.32 82.68V100H80.48V71.92H87.32L98.76 89.32V71.92H105.6V100Z" fill="black"/>
<line x1="72.9937" y1="82" x2="113.006" y2="82" stroke="black"/>
<line x1="72.9937" y1="90" x2="113.006" y2="90" stroke="black"/>
<path d="M377.785 246H370.945L359.505 228.68V246H352.665V217.92H359.505L370.945 235.32V217.92H377.785V246Z" fill="black"/>
<line x1="345" y1="229" x2="385" y2="229" stroke="black"/>
<line x1="345" y1="239" x2="385" y2="239" stroke="black"/>
<path d="M242.785 53H235.945L224.505 35.68V53H217.665V24.92H224.505L235.945 42.32V24.92H242.785V53Z" fill="black"/>
<line x1="210" y1="36" x2="250" y2="36" stroke="black"/>
<line x1="210" y1="46" x2="250" y2="46" stroke="black"/>
</g>
<defs>
<clipPath id="clip0_298:4">
<rect width="557" height="336" fill="white"/>
</clipPath>
</defs>
</svg>
