<svg width="758" height="427" viewBox="0 0 758 427" fill="none" xmlns="http://www.w3.org/2000/svg">
<g clip-path="url(#clip0_302:60)">
<path d="M381.432 427C586.97 427 753.592 415.573 753.592 401.476C753.592 387.38 586.97 375.953 381.432 375.953C175.894 375.953 9.27295 387.38 9.27295 401.476C9.27295 415.573 175.894 427 381.432 427Z" fill="#F2F2F2"/>
<path d="M367.168 122.063C306.533 122.063 262.998 162.363 262.998 256.397C262.998 362.968 306.533 391.178 367.168 391.178C427.803 391.178 473.932 360.281 473.932 256.397C473.932 145.348 427.803 122.063 367.168 122.063ZM367.567 355.804C325.57 355.804 303.629 330.279 303.629 256.466C303.629 191.336 326.468 156.99 368.465 156.99C410.462 156.99 433.301 179.551 433.301 256.466C433.301 328.418 409.564 355.804 367.567 355.804Z" fill="#2F2E41"/>
<path d="M226.69 316.847H201.62V240.368C201.62 236.306 200.062 232.411 197.29 229.538C194.517 226.666 190.757 225.052 186.835 225.052H180.961C179.019 225.052 177.097 225.448 175.303 226.218C173.509 226.988 171.88 228.116 170.507 229.538C169.134 230.961 168.045 232.649 167.302 234.507C166.559 236.365 166.176 238.357 166.176 240.368V316.847H95.4625C94.0077 316.847 92.5777 316.457 91.3111 315.716C90.0445 314.975 88.9843 313.907 88.2334 312.616C87.4825 311.325 87.0665 309.856 87.0255 308.349C86.9846 306.843 87.3202 305.351 87.9998 304.018L162.843 157.273C163.776 155.444 164.341 153.437 164.505 151.375C164.669 149.313 164.428 147.237 163.796 145.274C163.164 143.311 162.155 141.501 160.83 139.953C159.504 138.406 157.89 137.152 156.083 136.269L151.665 134.107C148.235 132.429 144.313 132.181 140.71 133.415C137.108 134.649 134.102 137.27 132.313 140.736L41.0329 317.632C39.4785 320.644 38.6653 324.007 38.6653 327.423V327.423C38.6653 330.15 39.1838 332.851 40.1913 335.37C41.1988 337.89 42.6755 340.18 44.5372 342.108C46.3988 344.037 48.6088 345.567 51.0411 346.61C53.4734 347.654 56.0804 348.191 58.7131 348.191H166.176V396.551C166.176 398.962 166.635 401.349 167.525 403.577C168.416 405.804 169.721 407.828 171.367 409.533C173.013 411.238 174.966 412.59 177.116 413.513C179.266 414.435 181.571 414.91 183.898 414.91H183.898C186.225 414.91 188.53 414.435 190.68 413.513C192.83 412.59 194.784 411.238 196.429 409.533C198.075 407.828 199.38 405.804 200.271 403.577C201.162 401.349 201.62 398.962 201.62 396.551V348.191H226.69C230.702 348.191 234.55 346.54 237.387 343.601C240.225 340.662 241.818 336.675 241.818 332.519V332.519C241.818 328.362 240.225 324.376 237.387 321.437C234.55 318.498 230.702 316.847 226.69 316.847V316.847Z" fill="#0066F5"/>
<path d="M690.917 316.847H665.847V240.368C665.847 236.306 664.289 232.411 661.516 229.538C658.744 226.666 654.983 225.052 651.062 225.052H645.188C643.246 225.052 641.324 225.448 639.53 226.218C637.736 226.988 636.106 228.116 634.733 229.538C633.361 230.961 632.272 232.649 631.529 234.507C630.786 236.365 630.403 238.357 630.403 240.368V316.847H559.689C558.235 316.847 556.804 316.457 555.538 315.716C554.271 314.975 553.211 313.907 552.46 312.616C551.709 311.325 551.293 309.856 551.252 308.349C551.211 306.843 551.547 305.351 552.227 304.018L627.069 157.273C628.002 155.444 628.568 153.437 628.732 151.375C628.896 149.313 628.655 147.237 628.023 145.274C627.391 143.311 626.382 141.501 625.057 139.953C623.731 138.406 622.116 137.152 620.31 136.269L615.892 134.107C612.461 132.429 608.539 132.181 604.937 133.415C601.335 134.649 598.329 137.27 596.54 140.736L505.26 317.632C503.705 320.644 502.892 324.007 502.892 327.423V327.423C502.892 332.931 505.004 338.213 508.764 342.108C512.524 346.003 517.623 348.191 522.94 348.191H630.403V396.551C630.403 401.42 632.27 406.09 635.594 409.533C638.917 412.976 643.425 414.91 648.125 414.91V414.91C652.825 414.91 657.333 412.976 660.656 409.533C663.98 406.09 665.847 401.42 665.847 396.551V348.191H690.917C694.929 348.191 698.777 346.54 701.614 343.601C704.451 340.662 706.045 336.675 706.045 332.519V332.519C706.045 328.362 704.451 324.376 701.614 321.437C698.777 318.498 694.929 316.847 690.917 316.847Z" fill="#0066F5"/>
<path d="M233.606 307.891H208.536V231.413C208.536 229.402 208.154 227.41 207.411 225.552C206.668 223.693 205.579 222.005 204.206 220.583C202.833 219.161 201.203 218.032 199.409 217.263C197.615 216.493 195.693 216.097 193.751 216.097H187.877C183.956 216.097 180.195 217.71 177.423 220.583C174.65 223.455 173.092 227.351 173.092 231.413V307.891H102.378C100.924 307.891 99.4936 307.502 98.227 306.76C96.9604 306.019 95.9002 304.951 95.1493 303.661C94.3984 302.37 93.9824 300.9 93.9414 299.394C93.9005 297.887 94.2361 296.395 94.9157 295.063L169.758 148.318C170.692 146.488 171.257 144.482 171.421 142.419C171.585 140.357 171.344 138.282 170.712 136.319C170.08 134.356 169.071 132.546 167.746 130.998C166.42 129.45 164.806 128.197 162.999 127.313L158.581 125.152C155.151 123.473 151.228 123.226 147.626 124.459C144.024 125.693 141.018 128.315 139.229 131.781L47.9488 308.676C46.3944 311.689 45.5812 315.052 45.5812 318.467V318.467C45.5812 323.975 47.6934 329.258 51.453 333.153C55.2127 337.048 60.312 339.236 65.629 339.236H173.092V387.596C173.092 390.007 173.551 392.394 174.441 394.621C175.332 396.849 176.637 398.873 178.283 400.577C179.928 402.282 181.882 403.634 184.032 404.557C186.182 405.48 188.487 405.955 190.814 405.955H190.814C195.514 405.955 200.022 404.02 203.345 400.577C206.669 397.134 208.536 392.465 208.536 387.596V339.236H233.606C235.593 339.236 237.56 338.83 239.395 338.043C241.231 337.255 242.899 336.101 244.303 334.645C245.708 333.19 246.822 331.462 247.583 329.561C248.343 327.66 248.734 325.622 248.734 323.563V323.563C248.734 321.505 248.343 319.467 247.583 317.566C246.822 315.665 245.708 313.937 244.303 312.482C242.899 311.026 241.231 309.872 239.395 309.084C237.56 308.297 235.593 307.891 233.606 307.891V307.891Z" stroke="#3F3D56" stroke-miterlimit="10"/>
<path d="M703.884 307.891H678.814V231.413C678.814 227.351 677.256 223.455 674.484 220.583C671.711 217.71 667.95 216.097 664.029 216.097H658.155C656.213 216.097 654.291 216.493 652.497 217.263C650.703 218.032 649.073 219.161 647.7 220.583C646.328 222.005 645.239 223.693 644.496 225.552C643.753 227.41 643.37 229.402 643.37 231.413V307.891H572.656C571.202 307.891 569.772 307.502 568.505 306.76C567.238 306.019 566.178 304.951 565.427 303.661C564.676 302.37 564.26 300.9 564.219 299.394C564.178 297.887 564.514 296.395 565.194 295.063L640.036 148.318C640.969 146.488 641.535 144.482 641.699 142.419C641.863 140.357 641.622 138.282 640.99 136.319C640.358 134.356 639.349 132.546 638.024 130.998C636.698 129.45 635.083 128.197 633.277 127.313L628.859 125.152C625.428 123.473 621.506 123.226 617.904 124.459C614.302 125.693 611.296 128.315 609.507 131.781L518.227 308.676C516.672 311.689 515.859 315.052 515.859 318.467C515.859 323.975 517.971 329.258 521.731 333.153C525.491 337.048 530.59 339.236 535.907 339.236H643.37V387.596C643.37 392.465 645.237 397.134 648.561 400.577C651.884 404.02 656.392 405.955 661.092 405.955V405.955C665.792 405.955 670.3 404.02 673.623 400.577C676.947 397.134 678.814 392.465 678.814 387.596V339.236H703.884C705.871 339.236 707.838 338.83 709.673 338.043C711.509 337.255 713.176 336.101 714.581 334.645C715.986 333.19 717.1 331.462 717.861 329.561C718.621 327.66 719.012 325.622 719.012 323.563V323.563C719.012 319.407 717.418 315.421 714.581 312.482C711.744 309.542 707.896 307.891 703.884 307.891V307.891Z" stroke="#3F3D56" stroke-miterlimit="10"/>
<path d="M381 114.003C320.365 114.003 276.83 154.303 276.83 248.337C276.83 354.908 320.365 383.118 381 383.118C441.635 383.118 487.764 352.221 487.764 248.337C487.764 137.288 441.635 114.003 381 114.003ZM381.399 347.743C339.402 347.743 317.461 322.219 317.461 248.406C317.461 183.276 340.3 148.93 382.297 148.93C424.294 148.93 447.133 171.491 447.133 248.406C447.133 320.358 423.396 347.743 381.399 347.743V347.743Z" stroke="#3F3D56" stroke-miterlimit="10"/>
<path d="M354.597 68.5338C368.697 68.5338 380.127 53.192 380.127 34.2669C380.127 15.3418 368.697 0 354.597 0C340.498 0 329.067 15.3418 329.067 34.2669C329.067 53.192 340.498 68.5338 354.597 68.5338Z" fill="#2F2E41"/>
<path opacity="0.1" d="M354.597 58.1847C341.808 58.1847 331.216 45.5621 329.357 29.0923C329.164 30.8098 329.067 32.5376 329.067 34.2668C329.067 53.1919 340.498 68.5337 354.597 68.5337C368.697 68.5337 380.127 53.1919 380.127 34.2668C380.128 32.5376 380.031 30.8098 379.838 29.0923C377.979 45.5621 367.387 58.1847 354.597 58.1847Z" fill="black"/>
<path d="M406.548 134.619C405.999 136.953 403.635 138.822 401.017 140.128C395.513 142.874 388.723 143.693 382.138 143.968C380.458 144.074 378.772 144.042 377.097 143.872C373.851 143.546 370.806 142.096 368.454 139.756C368.286 139.642 368.149 139.487 368.055 139.304C367.961 139.12 367.913 138.915 367.916 138.708C367.919 138.5 367.973 138.297 368.073 138.117C368.172 137.936 368.314 137.785 368.485 137.677C371.991 133.688 377.842 131.241 383.736 129.48C388.205 128.144 395.998 124.685 400.873 125.151C405.594 125.604 407.24 131.672 406.548 134.619Z" fill="#3F3D56"/>
<path opacity="0.1" d="M406.548 134.619C405.999 136.953 403.635 138.822 401.017 140.128C395.513 142.874 388.723 143.693 382.138 143.968C380.458 144.074 378.772 144.042 377.097 143.872C373.851 143.546 370.806 142.096 368.454 139.756C368.286 139.642 368.149 139.487 368.055 139.304C367.961 139.12 367.913 138.915 367.916 138.708C367.919 138.5 367.973 138.297 368.073 138.117C368.172 137.936 368.314 137.785 368.485 137.677C371.991 133.688 377.842 131.241 383.736 129.48C388.205 128.144 395.998 124.685 400.873 125.151C405.594 125.604 407.24 131.672 406.548 134.619Z" fill="black"/>
<path d="M336.562 117.175C334.881 120.586 334.577 124.549 335.716 128.193C336.874 131.809 339.042 134.988 341.945 137.326C349.067 143.24 358.869 144.054 367.996 143.972C375.995 143.9 383.983 143.333 391.917 142.274C394.575 142.03 397.188 141.401 399.678 140.407C402.657 139.072 405.275 136.623 406.336 133.445C407.396 130.267 406.643 126.375 404.125 124.254C401.912 122.391 398.86 122.135 396.013 121.957L379.724 120.943C381.334 119.256 383.476 118.302 385.436 117.075C388.036 115.448 389.763 112.716 391.654 110.253C394.567 106.647 397.736 103.271 401.135 100.154C401.665 103.305 403.589 105.892 405.853 108.065C408.117 110.239 410.727 111.989 413.08 114.059C418.78 119.071 422.884 125.875 428.878 130.504C433.002 129.381 436.857 127.387 440.201 124.648L437.871 120.276C437.677 119.826 437.375 119.435 436.993 119.141C436.334 118.721 435.483 118.937 434.718 118.819C432.671 118.501 431.777 116.053 430.974 114.077C428.77 108.653 424.548 104.444 420.943 99.8953C418.282 96.5374 415.922 92.9357 413.891 89.1347C412.68 86.8678 411.571 84.5075 409.928 82.5545C408.284 80.6015 405.982 79.0661 403.481 79.0606C401.271 79.0557 399.233 80.2179 397.333 81.387C391.546 84.9479 385.978 88.8775 380.661 93.1533C377.879 95.391 375.114 97.7552 371.85 99.1274C370.476 99.7051 369.027 100.1 367.709 100.803C365.4 102.034 363.647 104.117 361.76 105.966C355.032 112.561 345.819 116.833 336.562 117.175Z" fill="#3F3D56"/>
<path d="M370.621 70.2357C370.546 72.2516 370.132 74.2384 369.398 76.1071C369.026 77.0392 368.473 77.8818 367.773 78.5826C367.073 79.2833 366.241 79.8271 365.329 80.1801C364.034 80.5395 362.676 80.5851 361.362 80.3134C360.215 80.1894 359.11 79.7995 358.129 79.1728C356.602 78.0849 355.84 76.1439 355.563 74.2443C355.285 72.3469 355.41 70.4082 355.232 68.4971C355.059 66.9535 354.776 65.4253 354.384 63.9251C354.264 63.4261 354.142 62.9293 354.022 62.4326C353.905 61.9358 353.789 61.439 353.683 60.9423C353.585 60.4754 353.494 60.0063 353.416 59.5348C353.352 59.137 353.294 58.7368 353.252 58.3343C353.213 57.1412 353.021 55.9587 352.681 54.818C352.362 54.0781 351.963 53.3783 351.491 52.732C351.289 52.4331 351.094 52.1341 350.914 51.8236C350.394 51.0168 350.152 50.0516 350.228 49.0846C350.25 48.9351 350.285 48.788 350.333 48.6453C350.35 48.5901 350.37 48.535 350.393 48.482C350.592 48.4259 350.776 48.32 350.927 48.1737C351.078 48.0274 351.193 47.8451 351.261 47.6426C351.337 47.2075 351.301 46.7592 351.156 46.3432C350.99 45.7619 350.763 45.2012 350.479 44.6712C350.293 44.3217 349.66 43.6915 349.656 43.2913C349.647 42.4864 351.165 41.8379 351.78 41.5205C353.657 40.5468 355.75 40.1071 357.845 40.2464C359.188 40.3407 360.645 40.7685 361.386 41.9345C362.052 42.9855 361.963 44.3469 362.247 45.5681C362.277 45.7456 362.35 45.9125 362.458 46.0534C362.603 46.1902 362.785 46.2769 362.98 46.3018C363.309 46.3695 363.646 46.3835 363.979 46.3432H363.981C364.069 46.3359 364.157 46.3229 364.243 46.3041C364.762 46.2049 365.252 45.9856 365.677 45.6624C365.953 45.5865 366.23 45.5244 366.51 45.4761C366.521 45.4749 366.532 45.4726 366.543 45.4692C367.655 49.1052 367.8 53.0034 368.71 56.706C369.16 58.5482 369.806 60.3673 369.897 62.2623C369.904 62.3451 369.906 62.4302 369.909 62.5153C369.922 63.1247 369.875 63.7388 369.9 64.3459C369.908 64.6193 369.938 64.8916 369.989 65.16C370.088 65.5919 370.212 66.0173 370.359 66.4341L370.366 66.4548C370.408 66.5882 370.448 66.7239 370.481 66.8596C370.506 66.9585 370.528 67.0551 370.546 67.154L370.548 67.1609C370.712 68.1771 370.737 69.2123 370.621 70.2357V70.2357Z" fill="#FBBEBE"/>
<path d="M355.041 46.4559C362.275 46.4559 368.139 40.381 368.139 32.8871C368.139 25.3933 362.275 19.3184 355.041 19.3184C347.807 19.3184 341.943 25.3933 341.943 32.8871C341.943 40.381 347.807 46.4559 355.041 46.4559Z" fill="#FBBEBE"/>
<path d="M438.198 106.816C437.818 103.114 436.548 99.5704 434.504 96.5087C434.843 98.6015 435.184 100.694 435.525 102.785C435.101 102.912 434.65 102.908 434.228 102.774C433.806 102.639 433.431 102.38 433.15 102.028C432.598 101.315 432.176 100.504 431.904 99.6341C430.416 95.8073 428.47 92.189 426.112 88.8642C417.774 88.1444 409.531 84.5636 402.198 80.3895C394.864 76.2176 387.999 71.2156 380.762 66.8667C379.508 66.081 378.2 65.3893 376.85 64.7969C374.586 63.8562 372.044 63.3687 369.897 62.2625C369.753 62.1889 369.609 62.1107 369.467 62.0302C368.982 61.757 368.523 61.4374 368.095 61.0758C367.864 60.8814 367.644 60.6724 367.438 60.4502C366.367 59.1594 365.517 57.6876 364.927 56.099C363.775 53.4589 363.364 50.2737 362.214 47.6335C362.743 47.1218 363.336 46.6877 363.979 46.3433H363.981C364.074 46.2927 364.168 46.2444 364.263 46.1984C364.718 45.9764 365.191 45.7971 365.677 45.6626C365.953 45.5867 366.23 45.5246 366.51 45.4763C366.521 45.4751 366.532 45.4728 366.543 45.4694C367.84 45.2505 369.169 45.3593 370.417 45.7868C372.242 46.4261 373.78 47.7025 375.314 48.9099C377.806 50.7287 380.197 52.6928 382.474 54.7928C383.739 56.0484 384.894 57.4283 386.254 58.569C387.385 59.4732 388.577 60.2917 389.822 61.0183C397.186 65.5627 404.55 70.1063 411.915 74.6492C414.408 76.1877 416.904 77.7263 419.341 79.3545C423.044 81.8291 426.614 84.5107 430.181 87.1899C432.284 88.7676 434.385 90.346 436.486 91.9252C437.176 92.3807 437.781 92.9602 438.273 93.6363C438.709 94.4039 438.979 95.2597 439.066 96.1453C439.593 99.7235 439.296 103.38 438.198 106.816V106.816Z" fill="#FBBEBE"/>
<path d="M373.869 80.4398C372.985 84.5449 368.981 87.0264 366.887 90.6325C364.285 95.1079 365.346 100.31 366.323 105.436C364.538 107.03 362.753 108.624 360.966 110.218C359.981 111.094 358.995 111.975 357.934 112.75C356.386 113.824 354.769 114.786 353.094 115.629C351.514 116.471 349.933 117.313 348.352 118.156C346.883 119.012 345.326 119.696 343.71 120.194C340.596 121.022 337.288 120.442 334.207 119.483C333.843 119.385 333.494 119.237 333.168 119.044C332.975 118.925 332.808 118.768 332.675 118.582C332.371 118.018 332.261 117.363 332.362 116.726C332.675 111.354 333.942 106.094 335.206 100.873C335.881 97.7415 336.788 94.6683 337.921 91.6812C339.031 89.1217 340.308 86.643 341.741 84.2621C343.324 81.2664 345.198 78.4467 347.336 75.8471C348.376 74.8466 349.252 73.6767 349.929 72.3836C350.717 70.5208 350.412 68.3843 350.572 66.3559C350.695 64.8319 351.085 63.3439 351.725 61.9656V61.9633C352.067 61.2208 352.478 60.5152 352.954 59.8567C353.17 60.3764 353.385 60.8954 353.6 61.4136C353.742 61.754 353.883 62.0936 354.022 62.4325C354.204 62.8694 354.385 63.3048 354.564 63.7387C355.081 64.9852 355.598 66.231 356.113 67.4759C356.671 69.0439 357.465 70.5103 358.467 71.8202C358.924 72.491 359.542 73.0273 360.26 73.3767C360.978 73.7262 361.77 73.8769 362.561 73.8141C363.352 73.7513 364.113 73.4772 364.771 73.0185C365.429 72.5597 365.961 71.9322 366.314 71.197C367.06 69.8246 367.601 68.3427 367.917 66.8021C368.356 64.9262 368.416 62.9768 368.095 61.0756C367.56 57.4143 366.057 53.6749 364.964 50.2735C364.52 49.1393 364.263 47.9359 364.203 46.7134C364.205 46.576 364.219 46.4391 364.243 46.304C364.25 46.2695 364.256 46.2327 364.263 46.1982C364.718 45.9762 365.191 45.7969 365.677 45.6624C365.952 45.5865 366.23 45.5244 366.51 45.4761C367.471 50.8668 368.434 56.2575 369.398 61.6482C369.42 61.7747 369.444 61.9012 369.467 62.03C369.604 62.8027 369.744 63.5755 369.9 64.3459C370.039 65.045 370.19 65.7418 370.359 66.4341L370.366 66.4548C370.424 66.6894 370.483 66.9216 370.546 67.1539L370.548 67.1608C370.719 67.7956 370.91 68.4257 371.125 69.0466C372.43 72.7884 374.706 76.5555 373.869 80.4398Z" fill="#0066F5"/>
<path d="M427.025 138.13C426.984 138.921 427.132 139.71 427.456 140.427C428.275 141.979 430.242 142.332 431.944 142.477C441.887 143.324 451.889 143.008 461.764 141.536C462.299 141.498 462.819 141.331 463.281 141.048C464.685 140.028 463.82 137.543 462.287 136.748C460.754 135.952 458.935 136.144 457.253 135.8C455.582 135.364 453.99 134.649 452.541 133.683C449.13 131.653 445.769 129.536 442.457 127.333C440.486 126.021 438.159 124.622 435.939 125.399C429.924 127.507 426.986 131.408 427.025 138.13Z" fill="#3F3D56"/>
<path d="M353.734 60.6547V60.657C353.718 60.7535 353.703 60.8478 353.683 60.9421C353.658 61.0985 353.629 61.2572 353.6 61.4136C353.325 62.8739 352.988 64.3274 352.599 65.7717C351.534 69.7618 350.106 73.6876 348.69 77.5558C344.889 87.9279 341.088 98.3007 337.286 108.674C336.327 111.287 335.37 113.902 334.28 116.461C333.916 117.315 333.541 118.175 333.168 119.044C331.831 122.156 330.548 125.368 330.122 128.68C329.724 130.86 329.679 133.092 329.986 135.287C330.413 137.458 331.685 139.579 333.676 140.382C334.648 140.775 336.04 141.301 335.774 142.348C335.63 142.923 334.999 143.203 334.433 143.3C333.685 143.423 332.921 143.375 332.193 143.158C331.466 142.941 330.794 142.561 330.224 142.044C329.16 141.067 328.344 139.547 326.929 139.383C325.95 139.273 325.049 139.88 324.152 140.306C320.494 142.037 316.231 140.825 312.388 139.595C312.69 137.983 314.253 136.92 315.805 136.598C317.357 136.274 318.962 136.504 320.545 136.46C321.052 136.488 321.555 136.354 321.985 136.076C322.372 135.709 322.642 135.23 322.762 134.701C323.782 131.571 324.54 128.357 325.029 125.093C325.54 121.682 325.753 118.218 326.481 114.849C327.047 112.221 327.922 109.675 328.672 107.094C330.123 101.781 331.315 96.3962 332.242 90.959C332.711 88.7001 333.046 86.4137 333.247 84.1125C333.374 82.2037 333.314 80.2857 333.492 78.3837C333.79 75.9093 334.288 73.4652 334.981 71.0773C335.661 68.4716 336.339 65.8675 337.017 63.2649C338.023 59.4127 339.102 55.4111 341.65 52.4168C342.535 51.3626 343.62 50.508 344.837 49.9059C346.054 49.3039 347.378 48.9671 348.725 48.9165C349.231 48.9159 349.735 48.9722 350.228 49.0844C350.31 49.1051 350.393 49.1258 350.475 49.1488C351.013 49.2945 351.529 49.5158 352.009 49.8065C352.795 49.2891 353.194 49.4707 353.716 50.2688C354.173 51.1133 354.389 52.0754 354.337 53.0423C354.381 55.5943 354.179 58.1444 353.734 60.6547Z" fill="#FBBEBE"/>
<path d="M354.597 63.7041L354.564 63.7386L354.384 63.9249L352.599 65.7716L351.725 61.9654L348.725 48.9164C349.231 48.9158 349.735 48.9721 350.228 49.0843C350.25 48.9348 350.285 48.7877 350.333 48.645L350.475 49.1487L351.491 52.7317L353.416 59.5345L353.734 60.6545V60.6568L354.597 63.7041Z" fill="#0066F5"/>
<path d="M365.923 22.0743C365.922 23.2826 365.691 24.4787 365.243 25.5943C364.795 26.71 364.139 27.7232 363.313 28.5761C363.014 28.8865 362.693 29.1738 362.353 29.4358C360.821 30.6322 358.955 31.2797 357.037 31.2807H346.386C344.033 31.2769 341.777 30.3058 340.114 28.5805C338.451 26.8552 337.517 24.5168 337.517 22.0788C337.517 19.6408 338.451 17.3024 340.114 15.5771C341.777 13.8519 344.033 12.8807 346.386 12.877H357.037C359.39 12.8833 361.646 13.8541 363.311 15.5773C364.976 17.3005 365.915 19.6362 365.923 22.0743V22.0743Z" fill="#2F2E41"/>
<path opacity="0.1" d="M362.353 29.436C360.821 30.6324 358.955 31.2799 357.037 31.2809H346.386C344.468 31.2799 342.602 30.6324 341.07 29.436H362.353Z" fill="black"/>
<path d="M431.13 97.7589C431.13 97.7589 433.425 104.608 435.525 102.785L433.851 93.8315L431.13 97.7589Z" fill="#FBBEBE"/>
<path d="M342.137 228.848C344.085 228.848 345.665 227.212 345.665 225.194C345.665 223.176 344.085 221.54 342.137 221.54C340.189 221.54 338.609 223.176 338.609 225.194C338.609 227.212 340.189 228.848 342.137 228.848Z" fill="white"/>
<path opacity="0.3" d="M411.277 263.199C413.226 263.199 414.805 261.563 414.805 259.545C414.805 257.527 413.226 255.891 411.277 255.891C409.329 255.891 407.75 257.527 407.75 259.545C407.75 261.563 409.329 263.199 411.277 263.199Z" fill="#0066F5"/>
<path opacity="0.3" d="M325.205 263.199C327.153 263.199 328.732 261.563 328.732 259.545C328.732 257.527 327.153 255.891 325.205 255.891C323.256 255.891 321.677 257.527 321.677 259.545C321.677 261.563 323.256 263.199 325.205 263.199Z" fill="#0066F5"/>
</g>
<defs>
<clipPath id="clip0_302:60">
<rect width="758" height="427" fill="white"/>
</clipPath>
</defs>
</svg>
