<svg width="729" height="654" viewBox="0 0 729 654" fill="none" xmlns="http://www.w3.org/2000/svg">
<path d="M397.557 55L446.313 110.11L131.595 388.549C116.377 402.013 93.1256 400.59 79.6622 385.372V385.372C66.1987 370.154 67.6201 346.903 82.8378 333.44L397.557 55Z" fill="#0066F5"/>
<circle cx="428.074" cy="77.79" r="36.79" fill="#0066F5"/>
<path d="M420.056 41L428.385 114.107L275.167 131.564C254.979 133.864 236.749 119.363 234.448 99.1753V99.1753C232.148 78.9874 246.649 60.7572 266.837 58.4571L420.056 41Z" fill="#0066F5"/>
<path d="M660.557 14L709.313 69.1096L76.3109 629.143C61.0932 642.606 37.8419 641.184 24.3784 625.966V625.966C10.915 610.748 12.3364 587.497 27.5541 574.033L660.557 14Z" fill="#0066F5"/>
<circle cx="691.074" cy="36.79" r="36.79" fill="#0066F5"/>
<path d="M683.056 0L691.385 73.107L538.167 90.5641C517.979 92.8642 499.749 78.3633 497.449 58.1753V58.1753C495.148 37.9874 509.649 19.7572 529.837 17.4571L683.056 0Z" fill="#0066F5"/>
<path d="M602.557 275L651.313 330.11L336.595 608.549C321.377 622.013 298.126 620.59 284.662 605.372V605.372C271.199 590.154 272.62 566.903 287.838 553.44L602.557 275Z" fill="#0066F5"/>
<circle cx="633.074" cy="297.79" r="36.79" fill="#0066F5"/>
<path d="M649.036 460.495C646.384 480.64 627.904 494.82 607.759 492.168V492.168C587.614 489.516 573.434 471.035 576.086 450.891L596.214 298L669.165 307.604L649.036 460.495Z" fill="#0066F5"/>
<path d="M708.036 189.495C705.384 209.64 686.904 223.82 666.759 221.168V221.168C646.614 218.516 632.434 200.035 635.086 179.891L655.214 27L728.165 36.6041L708.036 189.495Z" fill="#0066F5"/>
</svg>
